<svg width="228" height="27" viewBox="0 0 228 27" fill="none" xmlns="http://www.w3.org/2000/svg">
<path d="M11.6523 0.0195312C12.4727 0.0195312 13.2109 0.160156 13.8672 0.441406C14.5469 0.699219 15.168 0.992187 15.7305 1.32031C16.3164 1.64844 16.8672 1.95312 17.3828 2.23438C17.8984 2.49219 18.4258 2.62109 18.9648 2.62109C19.3867 2.59766 19.8672 2.53906 20.4062 2.44531C20.875 2.35156 21.4141 2.21094 22.0234 2.02344C22.6562 1.8125 23.3594 1.50781 24.1328 1.10938C23.3594 1.85938 22.7266 2.49219 22.2344 3.00781C21.7656 3.5 21.4023 3.91016 21.1445 4.23828C20.8398 4.61328 20.6172 4.90625 20.4766 5.11719C20.3359 5.375 20.125 5.76172 19.8438 6.27734C19.5859 6.74609 19.2344 7.37891 18.7891 8.17578C18.3438 8.94922 17.7812 9.96875 17.1016 11.2344C17.1016 9.61719 16.9375 8.36328 16.6094 7.47266C16.3047 6.58203 15.9648 5.90234 15.5898 5.43359C15.1445 4.89453 14.6406 4.55469 14.0781 4.41406C13.5625 4.34375 13.0469 4.4375 12.5312 4.69531C12.0156 4.92969 11.5 5.28125 10.9844 5.75C10.4922 6.21875 10.0117 6.78125 9.54297 7.4375C9.09766 8.07031 8.6875 8.73828 8.3125 9.44141C7.96094 10.1445 7.66797 10.8594 7.43359 11.5859C7.19922 12.2891 7.04688 12.9453 6.97656 13.5547C6.90625 14.0938 6.89453 14.7266 6.94141 15.4531C6.98828 16.1562 7.09375 16.8828 7.25781 17.6328C7.42188 18.3594 7.63281 19.0742 7.89062 19.7773C8.14844 20.4805 8.46484 21.1133 8.83984 21.6758C9.23828 22.2148 9.68359 22.6602 10.1758 23.0117C10.668 23.3398 11.2305 23.4922 11.8633 23.4688C12.5664 23.4219 13.2578 23.2109 13.9375 22.8359C14.5234 22.5312 15.1211 22.0625 15.7305 21.4297C16.3398 20.7734 16.8672 19.8477 17.3125 18.6523L22.5156 19.6016C21.0156 21.4297 19.5508 22.8008 18.1211 23.7148C16.7148 24.6289 15.4492 25.2734 14.3242 25.6484C13.0117 26.0703 11.7695 26.2695 10.5977 26.2461C9.12109 26.082 7.73828 25.6367 6.44922 24.9102C5.16016 24.1836 4.04688 23.3047 3.10938 22.2734C2.19531 21.2188 1.48047 20.0703 0.964844 18.8281C0.449219 17.5859 0.226562 16.3672 0.296875 15.1719C0.34375 14.375 0.507812 13.4492 0.789062 12.3945C1.07031 11.3164 1.44531 10.2148 1.91406 9.08984C2.40625 7.96484 2.99219 6.86328 3.67188 5.78516C4.35156 4.70703 5.10156 3.74609 5.92188 2.90234C6.74219 2.03516 7.63281 1.34375 8.59375 0.828125C9.57812 0.289062 10.5977 0.0195312 11.6523 0.0195312ZM31.5859 10.25C32.1953 10.25 32.8281 10.3672 33.4844 10.6016C34.1406 10.8125 34.7734 11.0938 35.3828 11.4453C35.9922 11.7734 36.543 12.1367 37.0352 12.5352C37.5508 12.9102 37.9727 13.2734 38.3008 13.625C38.8867 14.2578 39.2852 15.1133 39.4961 16.1914C39.7305 17.2461 39.7773 18.3359 39.6367 19.4609C39.4961 20.5625 39.168 21.6055 38.6523 22.5898C38.1367 23.5742 37.4219 24.3008 36.5078 24.7695C35.8516 25.0977 35.207 25.3555 34.5742 25.543C33.9414 25.7305 33.332 25.8711 32.7461 25.9648C32.1602 26.0586 31.6094 26.1055 31.0938 26.1055C30.5781 26.1055 30.1328 26.0938 29.7578 26.0703C29.0547 26.0234 28.3164 25.7773 27.543 25.332C26.793 24.8867 26.0781 24.3359 25.3984 23.6797C24.7422 23.0234 24.1797 22.3086 23.7109 21.5352C23.2422 20.7383 22.9609 19.9883 22.8672 19.2852C22.7266 18.3242 22.7031 17.3164 22.7969 16.2617C22.8906 15.207 23.2305 14.2344 23.8164 13.3438C24.4258 12.4531 25.3398 11.7148 26.5586 11.1289C27.8008 10.543 29.4766 10.25 31.5859 10.25ZM30.4258 23.8906C30.6836 23.9375 31.0352 23.8789 31.4805 23.7148C31.9258 23.5273 32.3594 23.2344 32.7812 22.8359C33.2266 22.4375 33.6133 21.9336 33.9414 21.3242C34.293 20.6914 34.5039 19.9297 34.5742 19.0391C34.6445 18.1719 34.6445 17.375 34.5742 16.6484C34.5273 15.9219 34.4219 15.2891 34.2578 14.75C34.0938 14.1875 33.9062 13.7305 33.6953 13.3789C33.4844 13.0273 33.2617 12.7812 33.0273 12.6406C32.6289 12.4297 32.1484 12.2656 31.5859 12.1484C31.0234 12.0078 30.543 12.0312 30.1445 12.2188C29.957 12.3125 29.7227 12.5117 29.4414 12.8164C29.1602 13.1211 28.8789 13.5078 28.5977 13.9766C28.3164 14.4219 28.0586 14.9375 27.8242 15.5234C27.6133 16.1094 27.4609 16.7188 27.3672 17.3516C27.2734 17.9844 27.25 18.6641 27.2969 19.3906C27.3672 20.1172 27.5195 20.8086 27.7539 21.4648C27.9883 22.0977 28.3164 22.6484 28.7383 23.1172C29.1836 23.5625 29.7461 23.8203 30.4258 23.8906ZM41.1484 9.33594C41.6875 9.28906 42.1445 9.24219 42.5195 9.19531C42.918 9.14844 43.2461 9.10156 43.5039 9.05469C43.8086 9.00781 44.0664 8.96094 44.2773 8.91406C44.4883 8.89062 44.7227 8.84375 44.9805 8.77344C45.2148 8.72656 45.4727 8.66797 45.7539 8.59766C46.0586 8.50391 46.3867 8.39844 46.7383 8.28125L46.5273 12.7461C47.043 11.9258 47.6406 11.3047 48.3203 10.8828C49 10.4375 49.6445 10.1094 50.2539 9.89844C50.9805 9.64062 51.707 9.48828 52.4336 9.44141C53.1836 9.46484 53.875 9.58203 54.5078 9.79297C55.0469 9.98047 55.5859 10.2734 56.125 10.6719C56.6875 11.0703 57.1211 11.6562 57.4258 12.4297C58.2227 11.6094 59.0078 10.9766 59.7812 10.5312C60.5781 10.0625 61.2812 9.71094 61.8906 9.47656C62.6172 9.21875 63.2969 9.06641 63.9297 9.01953C64.7734 8.99609 65.5469 9.13672 66.25 9.44141C66.9766 9.74609 67.6094 10.1328 68.1484 10.6016C68.6875 11.0469 69.1211 11.5273 69.4492 12.043C69.7773 12.5352 69.9648 12.9688 70.0117 13.3438C70.082 13.8594 70.0469 14.5273 69.9062 15.3477C69.7656 16.1445 69.6016 16.9648 69.4141 17.8086C69.2266 18.6289 69.0508 19.3906 68.8867 20.0938C68.7461 20.7734 68.6875 21.2539 68.7109 21.5352C68.7812 21.7695 68.9453 22.0508 69.2031 22.3789C69.4375 22.6602 69.7773 23.0117 70.2227 23.4336C70.6914 23.832 71.3594 24.3008 72.2266 24.8398C71.4766 24.8164 70.8086 24.793 70.2227 24.7695C69.6602 24.7461 69.1797 24.7109 68.7812 24.6641C68.3125 24.6172 67.9023 24.582 67.5508 24.5586C67.2695 24.5586 66.9297 24.5352 66.5312 24.4883C66.2031 24.4648 65.7695 24.4297 65.2305 24.3828C64.7148 24.3359 64.1172 24.2891 63.4375 24.2422C63.6953 24.1719 63.9062 24.043 64.0703 23.8555C64.2344 23.6445 64.375 23.4453 64.4922 23.2578C64.6094 23.0234 64.7031 22.7656 64.7734 22.4844C64.8203 22.25 64.8672 21.875 64.9141 21.3594C64.9609 20.8438 64.9961 20.2578 65.0195 19.6016C65.0664 18.9453 65.0898 18.2539 65.0898 17.5273C65.1133 16.8008 65.1133 16.1094 65.0898 15.4531C65.0664 14.7969 65.0195 14.1992 64.9492 13.6602C64.8789 13.1211 64.7852 12.7109 64.668 12.4297C64.5742 12.2188 64.4102 12.0547 64.1758 11.9375C63.9414 11.7969 63.6719 11.7148 63.3672 11.6914C63.0625 11.6445 62.7578 11.6562 62.4531 11.7266C62.1484 11.7734 61.8789 11.8672 61.6445 12.0078C61.4336 12.1719 61.1523 12.3945 60.8008 12.6758C60.4961 12.9336 60.0977 13.2852 59.6055 13.7305C59.1133 14.1758 58.4922 14.7383 57.7422 15.418C57.6719 16.8945 57.6133 18.0898 57.5664 19.0039C57.543 19.8945 57.5195 20.5742 57.4961 21.043C57.4727 21.6055 57.4609 21.9922 57.4609 22.2031C57.4375 22.3906 57.4492 22.5664 57.4961 22.7305C57.543 23.082 57.6836 23.4102 57.918 23.7148C57.6367 23.6445 57.332 23.5977 57.0039 23.5742C56.6992 23.5508 56.418 23.5273 56.1602 23.5039C55.8555 23.4805 55.5508 23.4688 55.2461 23.4688C54.9883 23.4688 54.707 23.4805 54.4023 23.5039C54.1445 23.5273 53.8281 23.5625 53.4531 23.6094C53.0781 23.6328 52.668 23.668 52.2227 23.7148C52.4102 23.5977 52.5625 23.457 52.6797 23.293C52.7969 23.1289 52.8906 22.9766 52.9609 22.8359C53.0547 22.6719 53.125 22.5195 53.1719 22.3789C53.1953 22.2383 53.2422 21.8984 53.3125 21.3594C53.3828 20.7969 53.4297 20.1406 53.4531 19.3906C53.4766 18.6406 53.4766 17.8555 53.4531 17.0352C53.4297 16.1914 53.3477 15.4297 53.207 14.75C53.0664 14.0469 52.8438 13.4727 52.5391 13.0273C52.2578 12.582 51.8828 12.3828 51.4141 12.4297C50.8516 12.4766 50.2773 12.6172 49.6914 12.8516C49.1992 13.0391 48.6719 13.3203 48.1094 13.6953C47.5469 14.0703 47.0195 14.5742 46.5273 15.207C46.4336 16.9648 46.375 18.3594 46.3516 19.3906C46.3516 20.4219 46.3633 21.207 46.3867 21.7461C46.4102 22.3789 46.4336 22.8125 46.457 23.0469C46.4805 23.2109 46.5391 23.375 46.6328 23.5391C46.7031 23.6797 46.7852 23.8438 46.8789 24.0312C46.9961 24.2188 47.125 24.3945 47.2656 24.5586L41.6758 24.2773C41.8633 24.1836 42.0273 24.0664 42.168 23.9258C42.3086 23.7617 42.4258 23.5977 42.5195 23.4336C42.6133 23.2461 42.707 23.0586 42.8008 22.8711C42.8711 22.707 42.9297 22.3203 42.9766 21.7109C43.0469 21.1016 43.1055 20.3867 43.1523 19.5664C43.1992 18.7227 43.2344 17.8438 43.2578 16.9297C43.3047 15.9922 43.3281 15.125 43.3281 14.3281C43.3516 13.5078 43.3633 12.8164 43.3633 12.2539C43.3633 11.668 43.3516 11.3164 43.3281 11.1992C43.2578 10.9648 43.1289 10.7188 42.9414 10.4609C42.7773 10.2734 42.5547 10.0742 42.2734 9.86328C41.9922 9.62891 41.6172 9.45312 41.1484 9.33594ZM72.2266 9.33594C72.7656 9.28906 73.2227 9.24219 73.5977 9.19531C73.9961 9.14844 74.3242 9.10156 74.582 9.05469C74.8867 9.00781 75.1445 8.96094 75.3555 8.91406C75.5664 8.89062 75.8008 8.84375 76.0586 8.77344C76.293 8.72656 76.5508 8.66797 76.832 8.59766C77.1367 8.50391 77.4648 8.39844 77.8164 8.28125L77.6055 12.7461C78.1211 11.9258 78.7188 11.3047 79.3984 10.8828C80.0781 10.4375 80.7227 10.1094 81.332 9.89844C82.0586 9.64062 82.7852 9.48828 83.5117 9.44141C84.2617 9.46484 84.9531 9.58203 85.5859 9.79297C86.125 9.98047 86.6641 10.2734 87.2031 10.6719C87.7656 11.0703 88.1992 11.6562 88.5039 12.4297C89.3008 11.6094 90.0859 10.9766 90.8594 10.5312C91.6562 10.0625 92.3594 9.71094 92.9688 9.47656C93.6953 9.21875 94.375 9.06641 95.0078 9.01953C95.8516 8.99609 96.625 9.13672 97.3281 9.44141C98.0547 9.74609 98.6875 10.1328 99.2266 10.6016C99.7656 11.0469 100.199 11.5273 100.527 12.043C100.855 12.5352 101.043 12.9688 101.09 13.3438C101.16 13.8594 101.125 14.5273 100.984 15.3477C100.844 16.1445 100.68 16.9648 100.492 17.8086C100.305 18.6289 100.129 19.3906 99.9648 20.0938C99.8242 20.7734 99.7656 21.2539 99.7891 21.5352C99.8594 21.7695 100.023 22.0508 100.281 22.3789C100.516 22.6602 100.855 23.0117 101.301 23.4336C101.77 23.832 102.438 24.3008 103.305 24.8398C102.555 24.8164 101.887 24.793 101.301 24.7695C100.738 24.7461 100.258 24.7109 99.8594 24.6641C99.3906 24.6172 98.9805 24.582 98.6289 24.5586C98.3477 24.5586 98.0078 24.5352 97.6094 24.4883C97.2812 24.4648 96.8477 24.4297 96.3086 24.3828C95.793 24.3359 95.1953 24.2891 94.5156 24.2422C94.7734 24.1719 94.9844 24.043 95.1484 23.8555C95.3125 23.6445 95.4531 23.4453 95.5703 23.2578C95.6875 23.0234 95.7812 22.7656 95.8516 22.4844C95.8984 22.25 95.9453 21.875 95.9922 21.3594C96.0391 20.8438 96.0742 20.2578 96.0977 19.6016C96.1445 18.9453 96.168 18.2539 96.168 17.5273C96.1914 16.8008 96.1914 16.1094 96.168 15.4531C96.1445 14.7969 96.0977 14.1992 96.0273 13.6602C95.957 13.1211 95.8633 12.7109 95.7461 12.4297C95.6523 12.2188 95.4883 12.0547 95.2539 11.9375C95.0195 11.7969 94.75 11.7148 94.4453 11.6914C94.1406 11.6445 93.8359 11.6562 93.5312 11.7266C93.2266 11.7734 92.957 11.8672 92.7227 12.0078C92.5117 12.1719 92.2305 12.3945 91.8789 12.6758C91.5742 12.9336 91.1758 13.2852 90.6836 13.7305C90.1914 14.1758 89.5703 14.7383 88.8203 15.418C88.75 16.8945 88.6914 18.0898 88.6445 19.0039C88.6211 19.8945 88.5977 20.5742 88.5742 21.043C88.5508 21.6055 88.5391 21.9922 88.5391 22.2031C88.5156 22.3906 88.5273 22.5664 88.5742 22.7305C88.6211 23.082 88.7617 23.4102 88.9961 23.7148C88.7148 23.6445 88.4102 23.5977 88.082 23.5742C87.7773 23.5508 87.4961 23.5273 87.2383 23.5039C86.9336 23.4805 86.6289 23.4688 86.3242 23.4688C86.0664 23.4688 85.7852 23.4805 85.4805 23.5039C85.2227 23.5273 84.9062 23.5625 84.5312 23.6094C84.1562 23.6328 83.7461 23.668 83.3008 23.7148C83.4883 23.5977 83.6406 23.457 83.7578 23.293C83.875 23.1289 83.9688 22.9766 84.0391 22.8359C84.1328 22.6719 84.2031 22.5195 84.25 22.3789C84.2734 22.2383 84.3203 21.8984 84.3906 21.3594C84.4609 20.7969 84.5078 20.1406 84.5312 19.3906C84.5547 18.6406 84.5547 17.8555 84.5312 17.0352C84.5078 16.1914 84.4258 15.4297 84.2852 14.75C84.1445 14.0469 83.9219 13.4727 83.6172 13.0273C83.3359 12.582 82.9609 12.3828 82.4922 12.4297C81.9297 12.4766 81.3555 12.6172 80.7695 12.8516C80.2773 13.0391 79.75 13.3203 79.1875 13.6953C78.625 14.0703 78.0977 14.5742 77.6055 15.207C77.5117 16.9648 77.4531 18.3594 77.4297 19.3906C77.4297 20.4219 77.4414 21.207 77.4648 21.7461C77.4883 22.3789 77.5117 22.8125 77.5352 23.0469C77.5586 23.2109 77.6172 23.375 77.7109 23.5391C77.7812 23.6797 77.8633 23.8438 77.957 24.0312C78.0742 24.2188 78.2031 24.3945 78.3438 24.5586L72.7539 24.2773C72.9414 24.1836 73.1055 24.0664 73.2461 23.9258C73.3867 23.7617 73.5039 23.5977 73.5977 23.4336C73.6914 23.2461 73.7852 23.0586 73.8789 22.8711C73.9492 22.707 74.0078 22.3203 74.0547 21.7109C74.125 21.1016 74.1836 20.3867 74.2305 19.5664C74.2773 18.7227 74.3125 17.8438 74.3359 16.9297C74.3828 15.9922 74.4062 15.125 74.4062 14.3281C74.4297 13.5078 74.4414 12.8164 74.4414 12.2539C74.4414 11.668 74.4297 11.3164 74.4062 11.1992C74.3359 10.9648 74.207 10.7188 74.0195 10.4609C73.8555 10.2734 73.6328 10.0742 73.3516 9.86328C73.0703 9.62891 72.6953 9.45312 72.2266 9.33594ZM112.902 10.25C113.512 10.25 114.145 10.3672 114.801 10.6016C115.457 10.8125 116.09 11.0938 116.699 11.4453C117.309 11.7734 117.859 12.1367 118.352 12.5352C118.867 12.9102 119.289 13.2734 119.617 13.625C120.203 14.2578 120.602 15.1133 120.812 16.1914C121.047 17.2461 121.094 18.3359 120.953 19.4609C120.812 20.5625 120.484 21.6055 119.969 22.5898C119.453 23.5742 118.738 24.3008 117.824 24.7695C117.168 25.0977 116.523 25.3555 115.891 25.543C115.258 25.7305 114.648 25.8711 114.062 25.9648C113.477 26.0586 112.926 26.1055 112.41 26.1055C111.895 26.1055 111.449 26.0938 111.074 26.0703C110.371 26.0234 109.633 25.7773 108.859 25.332C108.109 24.8867 107.395 24.3359 106.715 23.6797C106.059 23.0234 105.496 22.3086 105.027 21.5352C104.559 20.7383 104.277 19.9883 104.184 19.2852C104.043 18.3242 104.02 17.3164 104.113 16.2617C104.207 15.207 104.547 14.2344 105.133 13.3438C105.742 12.4531 106.656 11.7148 107.875 11.1289C109.117 10.543 110.793 10.25 112.902 10.25ZM111.742 23.8906C112 23.9375 112.352 23.8789 112.797 23.7148C113.242 23.5273 113.676 23.2344 114.098 22.8359C114.543 22.4375 114.93 21.9336 115.258 21.3242C115.609 20.6914 115.82 19.9297 115.891 19.0391C115.961 18.1719 115.961 17.375 115.891 16.6484C115.844 15.9219 115.738 15.2891 115.574 14.75C115.41 14.1875 115.223 13.7305 115.012 13.3789C114.801 13.0273 114.578 12.7812 114.344 12.6406C113.945 12.4297 113.465 12.2656 112.902 12.1484C112.34 12.0078 111.859 12.0312 111.461 12.2188C111.273 12.3125 111.039 12.5117 110.758 12.8164C110.477 13.1211 110.195 13.5078 109.914 13.9766C109.633 14.4219 109.375 14.9375 109.141 15.5234C108.93 16.1094 108.777 16.7188 108.684 17.3516C108.59 17.9844 108.566 18.6641 108.613 19.3906C108.684 20.1172 108.836 20.8086 109.07 21.4648C109.305 22.0977 109.633 22.6484 110.055 23.1172C110.5 23.5625 111.062 23.8203 111.742 23.8906ZM123.73 22.1328C123.895 21.3594 124.012 20.6797 124.082 20.0938C124.176 19.4844 124.246 18.9805 124.293 18.582C124.34 18.1133 124.363 17.7148 124.363 17.3867C124.34 16.9883 124.316 16.5195 124.293 15.9805C124.293 15.418 124.27 14.8672 124.223 14.3281C124.199 13.7656 124.164 13.2734 124.117 12.8516C124.07 12.4062 124.012 12.0898 123.941 11.9023C123.848 11.7148 123.719 11.5156 123.555 11.3047C123.227 10.9062 122.746 10.5195 122.113 10.1445C122.652 10.0273 123.109 9.93359 123.484 9.86328C123.883 9.76953 124.211 9.6875 124.469 9.61719C124.75 9.52344 124.996 9.44141 125.207 9.37109C125.395 9.30078 125.617 9.23047 125.875 9.16016C126.086 9.11328 126.344 9.05469 126.648 8.98438C126.953 8.91406 127.305 8.83203 127.703 8.73828L127.598 11.9375C128.348 11.0469 129.109 10.3789 129.883 9.93359C130.656 9.48828 131.383 9.17188 132.062 8.98438C132.836 8.75 133.598 8.63281 134.348 8.63281C135.285 8.67969 136.152 8.83203 136.949 9.08984C137.77 9.34766 138.473 9.65234 139.059 10.0039C139.668 10.332 140.16 10.6836 140.535 11.0586C140.91 11.4336 141.133 11.7617 141.203 12.043C141.484 12.957 141.555 13.8008 141.414 14.5742C141.273 15.3242 141.086 16.0625 140.852 16.7891C140.641 17.4922 140.453 18.1953 140.289 18.8984C140.148 19.6016 140.207 20.3633 140.465 21.1836C140.559 21.3945 140.652 21.6055 140.746 21.8164C140.84 22.0039 140.957 22.1914 141.098 22.3789C141.238 22.5664 141.402 22.7188 141.59 22.8359C141.332 22.8125 141.074 22.8008 140.816 22.8008C140.559 22.7773 140.324 22.7539 140.113 22.7305C139.855 22.707 139.621 22.6836 139.41 22.6602C139.176 22.6367 138.859 22.625 138.461 22.625C137.781 22.625 136.727 22.6602 135.297 22.7305C135.508 22.2383 135.672 21.8281 135.789 21.5C135.93 21.1484 136.047 20.8672 136.141 20.6562C136.234 20.3984 136.305 20.1992 136.352 20.0586C136.633 19.3789 136.797 18.6055 136.844 17.7383C136.914 16.8711 136.855 15.9922 136.668 15.1016C136.598 14.7969 136.48 14.4336 136.316 14.0117C136.152 13.5898 135.93 13.1797 135.648 12.7812C135.391 12.3828 135.074 12.043 134.699 11.7617C134.348 11.4805 133.938 11.3164 133.469 11.2695C133 11.2227 132.473 11.3398 131.887 11.6211C131.324 11.9023 130.715 12.418 130.059 13.168C129.566 13.8008 129.18 14.5742 128.898 15.4883C128.641 16.2617 128.465 17.2344 128.371 18.4062C128.277 19.5547 128.418 20.9023 128.793 22.4492C128.465 22.4023 128.16 22.3789 127.879 22.3789C127.598 22.3555 127.363 22.332 127.176 22.3086C126.941 22.2852 126.73 22.2617 126.543 22.2383C126.332 22.2383 126.098 22.2266 125.84 22.2031C125.605 22.2031 125.312 22.2031 124.961 22.2031C124.609 22.1797 124.199 22.1562 123.73 22.1328Z" fill="#0012B4"/>
<path d="M146.934 23.9434L152.91 3.74609C153.145 3.00781 153.637 2.63867 154.387 2.63867C155.113 2.63867 155.57 2.94922 155.758 3.57031L161.646 24.084C161.693 24.2363 161.717 24.3828 161.717 24.5234C161.717 24.9336 161.576 25.2852 161.295 25.5781C161.014 25.8594 160.691 26 160.328 26C159.555 26 159.062 25.6426 158.852 24.9277L157.656 20.9199H150.924L149.623 25.209C149.588 25.3965 149.441 25.5781 149.184 25.7539C148.926 25.918 148.645 26 148.34 26C147.906 26 147.549 25.8535 147.268 25.5605C146.986 25.2676 146.846 24.9102 146.846 24.4883C146.846 24.3125 146.875 24.1309 146.934 23.9434ZM154.352 9.47656L151.82 17.9316H156.795L154.352 9.47656ZM168.643 24.5234V2.63867H179.084C180.291 2.63867 181.328 3.07812 182.195 3.95703C183.074 4.83594 183.514 5.88477 183.514 7.10352V8.79102C183.514 10.0215 183.08 11.0762 182.213 11.9551C181.346 12.8223 180.303 13.2559 179.084 13.2559H177.203L183.25 23.627C183.438 23.9316 183.531 24.2363 183.531 24.541C183.531 24.9395 183.379 25.2852 183.074 25.5781C182.77 25.8594 182.424 26 182.037 26C181.451 26 181.006 25.7363 180.701 25.209L173.758 13.2559H171.631V24.5234C171.631 24.9336 171.479 25.2852 171.174 25.5781C170.881 25.8594 170.529 26 170.119 26C169.709 26 169.357 25.8594 169.064 25.5781C168.783 25.2852 168.643 24.9336 168.643 24.5234ZM171.596 10.3027H179.084C179.494 10.3027 179.84 10.1621 180.121 9.88086C180.414 9.58789 180.561 9.23633 180.561 8.82617V7.10352C180.561 6.69336 180.414 6.34766 180.121 6.06641C179.84 5.77344 179.494 5.62695 179.084 5.62695H171.596V10.3027ZM190.334 6.66406V2.67383H205.24V6.69922C205.24 7.10938 205.094 7.46094 204.801 7.75391C204.508 8.03516 204.162 8.17578 203.764 8.17578C203.354 8.17578 202.996 8.0293 202.691 7.73633C202.398 7.44336 202.252 7.09766 202.252 6.69922V5.62695H199.264V24.5234C199.264 24.9336 199.117 25.2852 198.824 25.5781C198.531 25.8594 198.186 26 197.787 26C197.365 26 197.008 25.8594 196.715 25.5781C196.422 25.2852 196.275 24.9336 196.275 24.5234V5.62695H193.287V6.66406C193.287 7.07422 193.141 7.42578 192.848 7.71875C192.566 8 192.221 8.14062 191.811 8.14062C191.4 8.14062 191.049 8 190.756 7.71875C190.475 7.42578 190.334 7.07422 190.334 6.66406ZM215.471 2.63867H223.152C224.09 2.63867 224.975 3.03711 225.807 3.83398C226.65 4.61914 227.072 5.57422 227.072 6.69922C227.072 7.12109 226.92 7.47852 226.615 7.77148C226.322 8.06445 225.994 8.21094 225.631 8.21094C225.127 8.21094 224.781 8.09961 224.594 7.87695C224.406 7.64258 224.225 7.21484 224.049 6.59375C223.885 5.97266 223.51 5.66211 222.924 5.66211H215.629C215.277 5.66211 215.102 5.77344 215.102 5.99609C215.102 6.13672 215.178 6.30078 215.33 6.48828L226.281 20.498C226.809 21.1777 227.072 21.9043 227.072 22.6777C227.072 23.5566 226.75 24.3301 226.105 24.998C225.473 25.666 224.764 26 223.979 26H216.016C214.961 26 214.041 25.6016 213.256 24.8047C212.482 23.9961 212.096 23.1113 212.096 22.1504C212.096 21.0488 212.611 20.498 213.643 20.498C214.041 20.498 214.381 20.6445 214.662 20.9375C214.943 21.2188 215.084 21.5527 215.084 21.9395C215.084 22.2559 215.189 22.5195 215.4 22.7305C215.623 22.9414 215.898 23.0469 216.227 23.0469H223.574C223.891 23.0469 224.049 22.9238 224.049 22.6777C224.049 22.5605 223.973 22.4082 223.82 22.2207L212.887 8.21094C212.371 7.54297 212.113 6.81641 212.113 6.03125C212.113 5.11719 212.441 4.32617 213.098 3.6582C213.754 2.97852 214.545 2.63867 215.471 2.63867Z" fill="#8F00FF"/>
</svg>
