<svg width="229" height="39" viewBox="0 0 229 39" fill="none" xmlns="http://www.w3.org/2000/svg">
<path d="M25.6504 21.3594L25.5801 23.6445C25.5801 24.9219 25.8379 25.8184 26.3535 26.334L25.9844 26.6855C25.5391 26.2285 24.9531 26 24.2266 26H19.1113C19.123 26.1641 19.1289 26.3809 19.1289 26.6504C19.1289 27.3066 18.9648 27.6348 18.6367 27.6348C18.3086 27.6348 18.1445 27.2656 18.1445 26.5273C18.1445 26.3047 18.1504 26.1289 18.1621 26H2.42969C2.14844 26 1.90234 26.5039 1.69141 27.5117C1.49219 28.5312 1.39258 29.3457 1.39258 29.9551C1.39258 30.5645 1.5332 31.6543 1.81445 33.2246C2.0957 34.8066 2.23633 36.0371 2.23633 36.916C2.23633 37.8066 1.89062 38.252 1.19922 38.252C0.449219 38.252 0.0742188 37.7949 0.0742188 36.8809C0.0742188 35.9668 0.232422 34.6953 0.548828 33.0664C0.865234 31.4492 1.02344 30.2305 1.02344 29.4102L1.00586 4.00977C1.00586 3.29492 0.771484 2.70898 0.302734 2.25195L0.671875 1.88281C1.15234 2.35156 1.73828 2.58594 2.42969 2.58594H8.72266C9.4375 2.58594 10.0234 2.35156 10.4805 1.88281L10.8496 2.25195C10.3809 2.70898 10.1465 3.29492 10.1465 4.00977V18.5117C10.1465 19.2148 9.91797 19.7949 9.46094 20.252L9.83008 20.6211C10.4277 20.0234 11.7344 19.7246 13.75 19.7246L22.082 20.1465C24.0859 20.1465 25.3867 19.8477 25.9844 19.25L26.3535 19.6016C25.8848 20.0586 25.6504 20.6445 25.6504 21.3594ZM19.2344 33.8047C19.2344 34.2852 19.0352 34.5254 18.6367 34.5254C18.2383 34.5254 18.0391 34.2383 18.0391 33.6641C18.0391 33.1602 18.1328 32.5391 18.3203 31.8008C18.5195 31.0742 18.625 30.6816 18.6367 30.623C18.6602 30.7402 18.7188 30.9805 18.8125 31.3438C18.9062 31.707 18.9766 31.9883 19.0234 32.1875C19.1641 32.7852 19.2344 33.3242 19.2344 33.8047ZM28.8145 27.125L28.8672 29.9199C28.8672 30.4824 28.7793 30.9043 28.6035 31.1855C28.4277 31.4785 28.2168 31.625 27.9707 31.625C27.4785 31.625 27.2324 31.1504 27.2324 30.2012C27.2324 29.252 27.3496 28.1973 27.584 27.0371C27.8184 25.8887 28.0234 25.0977 28.1992 24.6641L36.6367 3.9043C36.7539 3.59961 36.8125 3.30078 36.8125 3.00781C36.8125 2.71484 36.7129 2.42773 36.5137 2.14648L37.0059 1.83008C37.3457 2.33398 37.873 2.58594 38.5879 2.58594H46.6738C47.377 2.58594 47.8984 2.33398 48.2383 1.83008L48.748 2.14648C48.5488 2.42773 48.4492 2.69727 48.4492 2.95508C48.4492 3.21289 48.5195 3.52344 48.6602 3.88672L57.3438 24.6816C57.6133 25.3379 58.0293 25.8535 58.5918 26.2285L58.3809 26.5625C57.8066 26.1875 57.168 26 56.4648 26H53.0195C53.043 26.2578 53.0547 26.4395 53.0547 26.5449C53.0547 26.9316 52.8965 27.125 52.5801 27.125C52.4395 27.125 52.3105 27.0664 52.1934 26.9492C52.0879 26.8438 52.0352 26.6855 52.0352 26.4746C52.0352 26.2754 52.0469 26.1172 52.0703 26H49.9434C49.4277 26 49.0938 26.2812 48.9414 26.8438C48.7539 27.5352 48.6602 28.3262 48.6602 29.2168C48.6602 30.1191 48.7188 30.9395 48.8359 31.6777C48.9531 32.416 49.0117 32.9199 49.0117 33.1895C49.0117 33.4707 48.9414 33.6934 48.8008 33.8574C48.6719 34.0332 48.5078 34.1211 48.3086 34.1211C48.1094 34.1211 47.9395 34.0391 47.7988 33.875C47.6582 33.7109 47.5879 33.4824 47.5879 33.1895C47.5879 32.8965 47.6582 32.3281 47.7988 31.4844C47.9512 30.6406 48.0273 30.0078 48.0273 29.5859V24.6465C47.9102 24.3301 47.8516 24.0371 47.8516 23.7676C47.8516 23.498 47.957 23.2109 48.168 22.9062L47.7109 22.5723C47.3594 23.0762 46.832 23.3281 46.1289 23.3281H38.9043C38.2012 23.3281 37.6738 23.082 37.3223 22.5898L36.8652 22.9062C37.0879 23.2227 37.1992 23.5156 37.1992 23.7852C37.1992 24.0547 37.1582 24.3418 37.0762 24.6465V24.6641C36.9707 25.0625 36.918 25.3672 36.918 25.5781C36.918 25.7891 37.0352 26.0645 37.2695 26.4043L36.8125 26.7383C36.4609 26.2461 35.9336 26 35.2305 26H28.8672C28.832 26.2227 28.8145 26.5977 28.8145 27.125ZM40.7148 18.459H44.0723C44.7754 18.459 45.4082 18.6465 45.9707 19.0215L46.1992 18.6875C45.6484 18.3125 45.25 17.791 45.0039 17.123L42.7715 11.4102C42.5137 10.7422 42.3789 10.0625 42.3672 9.37109H42.1387C42.1152 10.1445 41.998 10.8242 41.7871 11.4102L39.7656 17.1055C39.5195 17.7852 39.127 18.3125 38.5879 18.6875L38.8164 19.0391C39.3672 18.6523 40 18.459 40.7148 18.459ZM52.123 31.8184C52.123 31.0098 52.2754 29.9961 52.5801 28.7773C52.9199 30.1836 53.0898 31.0977 53.0898 31.5195C53.0898 32.1406 52.9258 32.4512 52.5977 32.4512C52.2812 32.4512 52.123 32.2402 52.123 31.8184ZM71.8633 31.1328L72.0391 29.3574V26.0703C68.8867 25.9062 66.5312 25.4785 64.9727 24.7871C63.4141 24.084 62.2656 23.2051 61.5273 22.1504C61.082 21.5293 60.7363 20.8379 60.4902 20.0762C60.2559 19.3027 59.8633 18.7227 59.3125 18.3359L59.5762 17.9668C60.1035 18.3184 60.6719 18.4941 61.2812 18.4941C61.9023 18.4941 62.6934 18.4707 63.6543 18.4238C64.6152 18.377 65.6992 18.3242 66.9062 18.2656C68.1133 18.1953 68.9746 18.1484 69.4902 18.125C70.0059 18.1016 70.3867 18.0312 70.6328 17.9141C70.8789 17.7852 71.0547 17.5566 71.1602 17.2285L71.9512 17.4922C71.916 17.5859 71.8984 17.709 71.8984 17.8613C71.8984 18.248 72.2207 18.6875 72.8652 19.1797C73.5098 19.6719 74.6758 19.918 76.3633 19.918C77.5 19.918 78.3086 19.7246 78.7891 19.3379C79 19.1621 79.1055 18.9512 79.1055 18.7051C79.1055 18.1309 78.7891 17.75 78.1562 17.5625C77.5234 17.375 76.7559 17.2168 75.8535 17.0879C74.9629 16.9473 74.0664 16.8359 73.1641 16.7539C72.2734 16.6719 71.3066 16.5547 70.2637 16.4023C69.2207 16.25 68.2363 16.0859 67.3105 15.9102C66.3848 15.7227 65.4824 15.4531 64.6035 15.1016C63.7363 14.75 62.9922 14.3398 62.3711 13.8711C61.75 13.3906 61.2461 12.7812 60.8594 12.043C60.4844 11.293 60.2969 10.4434 60.2969 9.49414C60.2969 8.54492 60.4434 7.67773 60.7363 6.89258C61.041 6.10742 61.4512 5.43359 61.9668 4.87109C62.4824 4.30859 63.1035 3.81055 63.8301 3.37695C64.5684 2.94336 65.3359 2.5918 66.1328 2.32227C66.9414 2.05273 67.8203 1.83594 68.7695 1.67188C70.4219 1.36719 71.9805 1.21484 73.4453 1.21484C74.9102 1.21484 76.0234 1.23828 76.7852 1.28516C77.5586 1.32031 78.4609 1.39648 79.4922 1.51367C80.5352 1.61914 81.4727 1.80078 82.3047 2.05859C83.1484 2.30469 83.9805 2.62109 84.8008 3.00781C86.5117 3.80469 87.7129 5.04102 88.4043 6.7168C88.6855 7.31445 89.0723 7.87109 89.5645 8.38672L89.3359 8.79102C88.8438 8.45117 88.2754 8.28125 87.6309 8.28125H87.4023C86.4648 8.31641 85.123 8.38672 83.377 8.49219C81.6426 8.58594 80.5234 8.64453 80.0195 8.66797C79.5273 8.69141 79.1699 8.76172 78.9473 8.87891C78.7363 8.99609 78.584 9.21875 78.4902 9.54688L77.7168 9.33594C77.752 9.23047 77.7695 9.11914 77.7695 9.00195C77.7695 8.50977 77.3711 8.08789 76.5742 7.73633C75.7773 7.37305 74.875 7.19141 73.8672 7.19141C71.8984 7.19141 70.9141 7.57812 70.9141 8.35156C70.9141 9.04297 72.3906 9.54688 75.3438 9.86328C76.0352 9.94531 76.8203 10.0273 77.6992 10.1094C80.7578 10.4258 83.1016 10.8418 84.7305 11.3574C88.1523 12.4355 89.8633 14.4922 89.8633 17.5273C89.8633 18.7695 89.6055 19.8887 89.0898 20.8848C88.5742 21.8691 87.9004 22.6719 87.0684 23.293C86.248 23.9141 85.2754 24.4297 84.1504 24.8398C82.123 25.5781 79.8086 25.9473 77.207 25.9473C76.5039 25.9473 76.0879 25.9414 75.959 25.9297C75.3262 25.9297 75.0098 26.416 75.0098 27.3887V27.8105C75.0098 28.127 75.0859 28.5898 75.2383 29.1992C75.4023 29.8203 75.4844 30.2832 75.4844 30.5879C75.4844 31.209 75.2676 31.5195 74.834 31.5195C74.6113 31.5195 74.4355 31.4258 74.3066 31.2383C74.1895 31.0508 74.1309 30.8164 74.1309 30.5352C74.1309 30.2539 74.2012 29.7734 74.3418 29.0938C74.4941 28.4258 74.5703 27.9395 74.5703 27.6348C74.5703 27.3301 74.5645 27.1133 74.5527 26.9844C74.5527 26.8672 74.5352 26.7148 74.5 26.5273C74.4766 26.3516 74.4297 26.2227 74.3594 26.1406C74.1953 25.9297 73.9141 25.8242 73.5156 25.8242C72.7891 25.8242 72.4258 26.457 72.4258 27.7227L72.5312 30.6055C72.5312 31.3789 72.4199 31.7656 72.1973 31.7656C71.9746 31.7656 71.8633 31.5547 71.8633 31.1328ZM93.2734 7.13867L93.3613 4.88867C93.3613 3.59961 93.1094 2.70898 92.6055 2.2168L92.957 1.86523C93.4258 2.32227 94.0059 2.55078 94.6973 2.55078H117.777C118.492 2.55078 119.078 2.32227 119.535 1.86523L119.887 2.2168C119.441 2.66211 119.219 3.24805 119.219 3.97461L119.131 6.22461C119.131 7.49023 119.383 8.375 119.887 8.87891L119.535 9.24805C119.008 8.70898 118.152 8.43945 116.969 8.43945L113.084 8.68555C111.854 8.68555 110.969 8.41602 110.43 7.87695L110.061 8.22852C110.518 8.67383 110.746 9.25977 110.746 9.98633V24.5762C110.746 25.7949 110.852 27.6113 111.062 30.0254C111.285 32.4395 111.396 34.0273 111.396 34.7891C111.396 36.125 111.156 36.793 110.676 36.793C110.195 36.793 109.955 36.3184 109.955 35.3691C109.955 34.4199 110.031 33.1309 110.184 31.502C110.348 29.8848 110.43 28.666 110.43 27.8457C110.43 26.5684 110.178 25.9297 109.674 25.9297C109.428 25.9297 109.234 26.0762 109.094 26.3691C108.953 26.6621 108.883 26.9492 108.883 27.2305L109.287 30.9043C109.287 31.748 109.047 32.1699 108.566 32.1699C108.32 32.1699 108.139 32.0469 108.021 31.8008C107.904 31.5547 107.846 31.2676 107.846 30.9395C107.846 30.6113 107.951 30.0723 108.162 29.3223C108.373 28.584 108.479 27.9805 108.479 27.5117C108.479 27.043 108.273 26.6855 107.863 26.4395C107.465 26.1934 106.955 26.0703 106.334 26.0703C105.725 26.0703 105.086 26.1934 104.418 26.4395C103.762 26.6855 103.182 27.0664 102.678 27.582C102.174 28.1094 101.922 28.625 101.922 29.1289C101.922 29.6445 101.998 30.2656 102.15 30.9922C102.314 31.7188 102.396 32.3223 102.396 32.8027C102.396 33.2949 102.18 33.541 101.746 33.541C101.254 33.541 101.008 33.2773 101.008 32.75C101.008 32.2344 101.102 31.5781 101.289 30.7812C101.477 29.9844 101.57 29.3867 101.57 28.9883V24.418C101.594 17.9961 101.605 13.1855 101.605 9.98633C101.605 9.24805 101.828 8.66211 102.273 8.22852L101.922 7.87695C101.406 8.4043 100.551 8.66797 99.3555 8.66797L95.5762 8.43945C94.3691 8.43945 93.4961 8.70898 92.957 9.24805L92.6055 8.87891C93.0508 8.43359 93.2734 7.85352 93.2734 7.13867ZM108.426 34.8242C108.707 36.1133 108.848 37.2324 108.848 38.1816C108.848 38.5918 108.701 38.7969 108.408 38.7969C108.115 38.7969 107.969 38.6094 107.969 38.2344C107.969 37.1797 108.121 36.043 108.426 34.8242ZM129.977 1.28516C130.75 1.37891 131.453 1.44922 132.086 1.49609C132.695 1.54297 133.223 1.58984 133.668 1.63672C134.184 1.68359 134.641 1.71875 135.039 1.74219C135.461 1.74219 136 1.73047 136.656 1.70703C137.219 1.68359 137.934 1.64844 138.801 1.60156C139.668 1.55469 140.734 1.47266 142 1.35547C141.391 1.70703 140.887 2.05859 140.488 2.41016C140.113 2.76172 139.82 3.07812 139.609 3.35938C139.352 3.6875 139.164 4.01562 139.047 4.34375C138.977 4.78906 139 5.65625 139.117 6.94531C139.164 7.48438 139.234 8.15234 139.328 8.94922C139.445 9.72266 139.586 10.6484 139.75 11.7266C139.938 12.7812 140.16 14 140.418 15.3828C140.699 16.7656 141.016 18.3359 141.367 20.0938C141.836 18.7578 142.223 17.5742 142.527 16.543C142.832 15.4883 143.09 14.5859 143.301 13.8359C143.535 12.9922 143.734 12.2422 143.898 11.5859C144.062 10.9062 144.262 10.0273 144.496 8.94922C144.684 8.03516 144.93 6.85156 145.234 5.39844C145.539 3.94531 145.914 2.15234 146.359 0.0195312L147.625 0.195312C147.742 1.85938 147.859 3.32422 147.977 4.58984C148.117 5.85547 148.234 6.93359 148.328 7.82422C148.422 8.85547 148.516 9.74609 148.609 10.4961C148.703 11.1758 148.844 11.9609 149.031 12.8516C149.195 13.6016 149.406 14.5273 149.664 15.6289C149.922 16.707 150.262 17.9258 150.684 19.2852C151.105 17.6211 151.48 16.1328 151.809 14.8203C152.16 13.5078 152.453 12.3477 152.688 11.3398C152.945 10.332 153.156 9.46484 153.32 8.73828C153.508 8.01172 153.66 7.40234 153.777 6.91016C154.035 5.73828 154.188 4.95312 154.234 4.55469C154.211 4.10938 154.105 3.67578 153.918 3.25391C153.754 2.87891 153.496 2.46875 153.145 2.02344C152.793 1.57813 152.277 1.14453 151.598 0.722656C153.027 0.769531 154.188 0.804688 155.078 0.828125C155.992 0.828125 156.719 0.828125 157.258 0.828125H158.664H159.93C160.398 0.828125 161.008 0.828125 161.758 0.828125C162.531 0.804688 163.516 0.769531 164.711 0.722656C163.68 1.26172 162.848 1.75391 162.215 2.19922C161.582 2.64453 161.09 3.01953 160.738 3.32422C160.316 3.69922 160.012 4.01562 159.824 4.27344C159.637 4.74219 159.332 5.79688 158.91 7.4375C158.723 8.14062 158.512 9.01953 158.277 10.0742C158.043 11.1055 157.762 12.3477 157.434 13.8008C157.129 15.2539 156.777 16.9531 156.379 18.8984C155.98 20.8203 155.535 23.0234 155.043 25.5078L148.961 24.875L146.359 13.9414C145.961 15.9336 145.645 17.5508 145.41 18.793C145.176 20.0117 145 20.9609 144.883 21.6406C144.742 22.4609 144.66 23.0586 144.637 23.4336C144.613 23.7617 144.59 24.0781 144.566 24.3828C144.543 24.6406 144.508 24.9219 144.461 25.2266C144.438 25.5312 144.402 25.8125 144.355 26.0703H138.133C137.523 23.3984 136.973 21.043 136.48 19.0039C136.012 16.9414 135.59 15.1367 135.215 13.5898C134.84 12.043 134.512 10.7305 134.23 9.65234C133.973 8.57422 133.738 7.67188 133.527 6.94531C133.059 5.25781 132.719 4.21484 132.508 3.81641C132.344 3.62891 132.133 3.40625 131.875 3.14844C131.664 2.9375 131.406 2.67969 131.102 2.375C130.773 2.04687 130.398 1.68359 129.977 1.28516ZM169.633 10.25C170.242 10.25 170.875 10.3672 171.531 10.6016C172.188 10.8125 172.82 11.0938 173.43 11.4453C174.039 11.7734 174.59 12.1367 175.082 12.5352C175.598 12.9102 176.02 13.2734 176.348 13.625C176.934 14.2578 177.332 15.1133 177.543 16.1914C177.777 17.2461 177.824 18.3359 177.684 19.4609C177.543 20.5625 177.215 21.6055 176.699 22.5898C176.184 23.5742 175.469 24.3008 174.555 24.7695C173.898 25.0977 173.254 25.3555 172.621 25.543C171.988 25.7305 171.379 25.8711 170.793 25.9648C170.207 26.0586 169.656 26.1055 169.141 26.1055C168.625 26.1055 168.18 26.0938 167.805 26.0703C167.102 26.0234 166.363 25.7773 165.59 25.332C164.84 24.8867 164.125 24.3359 163.445 23.6797C162.789 23.0234 162.227 22.3086 161.758 21.5352C161.289 20.7383 161.008 19.9883 160.914 19.2852C160.773 18.3242 160.75 17.3164 160.844 16.2617C160.938 15.207 161.277 14.2344 161.863 13.3438C162.473 12.4531 163.387 11.7148 164.605 11.1289C165.848 10.543 167.523 10.25 169.633 10.25ZM168.473 23.8906C168.73 23.9375 169.082 23.8789 169.527 23.7148C169.973 23.5273 170.406 23.2344 170.828 22.8359C171.273 22.4375 171.66 21.9336 171.988 21.3242C172.34 20.6914 172.551 19.9297 172.621 19.0391C172.691 18.1719 172.691 17.375 172.621 16.6484C172.574 15.9219 172.469 15.2891 172.305 14.75C172.141 14.1875 171.953 13.7305 171.742 13.3789C171.531 13.0273 171.309 12.7812 171.074 12.6406C170.676 12.4297 170.195 12.2656 169.633 12.1484C169.07 12.0078 168.59 12.0312 168.191 12.2188C168.004 12.3125 167.77 12.5117 167.488 12.8164C167.207 13.1211 166.926 13.5078 166.645 13.9766C166.363 14.4219 166.105 14.9375 165.871 15.5234C165.66 16.1094 165.508 16.7188 165.414 17.3516C165.32 17.9844 165.297 18.6641 165.344 19.3906C165.414 20.1172 165.566 20.8086 165.801 21.4648C166.035 22.0977 166.363 22.6484 166.785 23.1172C167.23 23.5625 167.793 23.8203 168.473 23.8906ZM179.02 9.16016C179.465 9.18359 179.863 9.19531 180.215 9.19531C180.59 9.17188 180.906 9.14844 181.164 9.125C181.469 9.10156 181.738 9.07812 181.973 9.05469C182.324 9.00781 182.688 8.94922 183.062 8.87891C183.391 8.83203 183.73 8.77344 184.082 8.70312C184.457 8.60938 184.82 8.50391 185.172 8.38672C185.031 8.73828 184.914 9.04297 184.82 9.30078C184.727 9.55859 184.656 9.78125 184.609 9.96875C184.539 10.1797 184.504 10.3555 184.504 10.4961C184.48 10.6602 184.469 10.8594 184.469 11.0938C184.445 11.4922 184.445 12.1367 184.469 13.0273C185.688 11.9727 186.707 11.1523 187.527 10.5664C188.371 9.98047 189.039 9.52344 189.531 9.19531C190.117 8.82031 190.574 8.57422 190.902 8.45703C191.77 8.31641 192.531 8.51562 193.188 9.05469C193.469 9.28906 193.738 9.60547 193.996 10.0039C194.254 10.3789 194.477 10.8828 194.664 11.5156C194.852 12.1484 194.992 12.9102 195.086 13.8008C195.18 14.668 195.191 15.7109 195.121 16.9297C194.629 16.9766 194.184 17.0234 193.785 17.0703C193.41 17.1172 193.094 17.1523 192.836 17.1758C192.531 17.2227 192.25 17.2461 191.992 17.2461L191.043 17.3516C190.715 17.3984 190.305 17.4453 189.812 17.4922C189.344 17.5156 188.77 17.5625 188.09 17.6328C189.074 16.8359 189.707 16.1445 189.988 15.5586C190.293 14.9492 190.422 14.4453 190.375 14.0469C190.328 13.6016 190.117 13.2148 189.742 12.8867C189.297 12.6289 188.816 12.5352 188.301 12.6055C187.855 12.6523 187.34 12.8516 186.754 13.2031C186.168 13.5547 185.547 14.2109 184.891 15.1719C184.938 16.6719 184.984 17.9141 185.031 18.8984C185.102 19.8828 185.16 20.6797 185.207 21.2891C185.277 21.9922 185.336 22.543 185.383 22.9414C185.453 23.293 185.594 23.668 185.805 24.0664C185.969 24.3945 186.203 24.7578 186.508 25.1562C186.812 25.5547 187.211 25.9531 187.703 26.3516C186.672 26.3047 185.828 26.3047 185.172 26.3516C184.773 26.375 184.422 26.3984 184.117 26.4219C183.789 26.4688 183.438 26.5156 183.062 26.5625C182.734 26.6094 182.348 26.6562 181.902 26.7031C181.48 26.7734 181.012 26.8438 180.496 26.9141C180.684 26.6562 180.836 26.3516 180.953 26C181.07 25.6719 181.164 25.3555 181.234 25.0508C181.328 24.6992 181.398 24.3359 181.445 23.9609C181.469 23.6328 181.48 23.1406 181.48 22.4844C181.504 21.8281 181.492 21.0898 181.445 20.2695C181.422 19.4258 181.387 18.5586 181.34 17.668C181.293 16.7539 181.234 15.8984 181.164 15.1016C181.094 14.3047 181.012 13.6133 180.918 13.0273C180.848 12.418 180.766 11.9961 180.672 11.7617C180.555 11.4805 180.414 11.1992 180.25 10.918C180.109 10.6602 179.934 10.3906 179.723 10.1094C179.512 9.80469 179.277 9.48828 179.02 9.16016ZM196.246 0.652344C196.504 0.769531 196.809 0.851562 197.16 0.898438C197.535 0.945313 197.887 0.96875 198.215 0.96875C198.613 0.96875 199.023 0.957031 199.445 0.933594C199.867 0.910156 200.383 0.863281 200.992 0.792969C201.484 0.746094 202.094 0.6875 202.82 0.617188C203.547 0.546875 204.355 0.453125 205.246 0.335938C204.918 0.5 204.637 0.675781 204.402 0.863281C204.168 1.05078 203.969 1.23828 203.805 1.42578C203.617 1.63672 203.465 1.84766 203.348 2.05859C203.184 2.33984 202.961 2.83203 202.68 3.53516C202.422 4.21484 202.152 4.97656 201.871 5.82031C201.613 6.66406 201.379 7.51953 201.168 8.38672C200.98 9.25391 200.875 9.99219 200.852 10.6016C200.828 11.1172 200.805 11.7031 200.781 12.3594C200.758 12.9219 200.734 13.6133 200.711 14.4336C200.688 15.2539 200.664 16.1914 200.641 17.2461C202.328 16.0273 203.629 15.0547 204.543 14.3281C205.457 13.5781 206.125 13.0039 206.547 12.6055C207.039 12.1602 207.332 11.8438 207.426 11.6562C207.402 11.5156 207.344 11.3633 207.25 11.1992C207.133 11.0586 206.969 10.8945 206.758 10.707C206.547 10.5195 206.23 10.3086 205.809 10.0742C206.418 10.1445 206.945 10.1914 207.391 10.2148C207.859 10.2383 208.258 10.2617 208.586 10.2852C208.961 10.3086 209.289 10.3086 209.57 10.2852C209.875 10.2852 210.25 10.2734 210.695 10.25C211.469 10.2266 212.664 10.1914 214.281 10.1445C212.711 10.9648 211.469 11.668 210.555 12.2539C210.039 12.582 209.582 12.8867 209.184 13.168C208.785 13.4727 208.375 13.7891 207.953 14.1172C207.578 14.3984 207.145 14.7266 206.652 15.1016C206.184 15.4766 205.715 15.875 205.246 16.2969C206.066 17.6328 206.781 18.7344 207.391 19.6016C208.023 20.4688 208.551 21.1719 208.973 21.7109C209.465 22.3438 209.898 22.8477 210.273 23.2227C210.648 23.5742 211.141 23.9727 211.75 24.418C212.266 24.8164 212.934 25.2852 213.754 25.8242C214.598 26.3398 215.617 26.9375 216.812 27.6172C216.203 27.5 215.617 27.418 215.055 27.3711C214.492 27.3477 214.012 27.3477 213.613 27.3711C213.121 27.3945 212.676 27.4414 212.277 27.5117C211.855 27.6055 211.387 27.7227 210.871 27.8633C210.426 27.9805 209.898 28.1328 209.289 28.3203C208.703 28.5312 208.059 28.8008 207.355 29.1289C207.801 28.8008 208.129 28.4844 208.34 28.1797C208.574 27.8984 208.738 27.6641 208.832 27.4766C208.926 27.2422 208.961 27.043 208.938 26.8789C208.82 26.6445 208.551 26.1641 208.129 25.4375C207.73 24.8281 207.145 23.9375 206.371 22.7656C205.598 21.5938 204.496 20 203.066 17.9844C202.996 18.0078 202.879 18.0781 202.715 18.1953C202.574 18.3125 202.363 18.4766 202.082 18.6875C201.801 18.875 201.426 19.1562 200.957 19.5312L201.906 25.6836C201.695 25.7773 201.461 25.8594 201.203 25.9297C200.969 26 200.746 26.0586 200.535 26.1055C200.277 26.1758 200.02 26.2227 199.762 26.2461C199.504 26.2695 199.199 26.3164 198.848 26.3867C198.543 26.4336 198.18 26.4922 197.758 26.5625C197.336 26.6562 196.855 26.7617 196.316 26.8789C196.621 26.668 196.867 26.4219 197.055 26.1406C197.242 25.8828 197.395 25.6367 197.512 25.4023C197.629 25.1445 197.734 24.875 197.828 24.5938C197.875 24.3594 197.922 23.75 197.969 22.7656C198.039 21.7812 198.098 20.6094 198.145 19.25C198.191 17.8672 198.227 16.3906 198.25 14.8203C198.297 13.25 198.32 11.7734 198.32 10.3906C198.32 8.98438 198.309 7.76562 198.285 6.73438C198.262 5.67969 198.215 5 198.145 4.69531C198.027 4.32031 197.887 3.92188 197.723 3.5C197.582 3.125 197.383 2.70313 197.125 2.23438C196.891 1.74219 196.598 1.21484 196.246 0.652344ZM228.52 5.92578C228.309 6.44141 228.121 6.91016 227.957 7.33203C227.816 7.75391 227.688 8.12891 227.57 8.45703C227.453 8.83203 227.348 9.16016 227.254 9.44141C227.16 9.76953 227.055 10.1445 226.938 10.5664C226.82 10.9414 226.668 11.4102 226.48 11.9727C226.316 12.5117 226.117 13.1562 225.883 13.9062C225.695 12.7812 225.355 11.8906 224.863 11.2344C224.371 10.5547 223.867 10.0273 223.352 9.65234C222.742 9.23047 222.086 8.92578 221.383 8.73828C220.117 8.52734 219.203 8.55078 218.641 8.80859C218.078 9.06641 217.703 9.39453 217.516 9.79297C217.422 9.95703 217.316 10.168 217.199 10.4258C217.105 10.6602 217.023 10.9062 216.953 11.1641C216.906 11.4219 216.895 11.6797 216.918 11.9375C216.941 12.1953 217.047 12.4062 217.234 12.5703C217.352 12.6875 217.656 12.8516 218.148 13.0625C218.641 13.25 219.227 13.4727 219.906 13.7305C220.609 13.9648 221.348 14.2227 222.121 14.5039C222.918 14.7852 223.668 15.0664 224.371 15.3477C225.074 15.6289 225.684 15.9102 226.199 16.1914C226.715 16.4727 227.055 16.7305 227.219 16.9648C227.359 17.1992 227.512 17.5156 227.676 17.9141C227.863 18.2891 227.992 18.7109 228.062 19.1797C228.156 19.625 228.18 20.0938 228.133 20.5859C228.109 21.0547 227.98 21.5234 227.746 21.9922C227.512 22.4609 227.137 22.8945 226.621 23.293C226.129 23.6914 225.461 24.0195 224.617 24.2773C223.633 24.582 222.684 24.6641 221.77 24.5234C220.855 24.3828 220.012 24.1719 219.238 23.8906C218.488 23.6094 217.832 23.3398 217.27 23.082C216.707 22.8008 216.309 22.6836 216.074 22.7305C215.816 22.7773 215.523 22.9062 215.195 23.1172C214.867 23.3281 214.551 23.5508 214.246 23.7852C213.965 23.9961 213.719 24.1953 213.508 24.3828C213.297 24.5469 213.191 24.6055 213.191 24.5586C213.191 24.5117 213.227 24.3711 213.297 24.1367C213.391 23.9023 213.484 23.6211 213.578 23.293C213.695 22.9414 213.801 22.5664 213.895 22.168C214.012 21.7461 214.094 21.3477 214.141 20.9727C214.188 20.668 214.246 20.293 214.316 19.8477C214.363 19.4492 214.422 18.9688 214.492 18.4062C214.586 17.8203 214.691 17.1172 214.809 16.2969C214.926 16.9062 215.09 17.4336 215.301 17.8789C215.535 18.3242 215.758 18.7109 215.969 19.0391C216.227 19.4141 216.473 19.7305 216.707 19.9883C217.059 20.3164 217.469 20.6211 217.938 20.9023C218.43 21.1836 218.922 21.4297 219.414 21.6406C219.906 21.8281 220.375 21.9453 220.82 21.9922C221.266 22.0391 221.641 21.9922 221.945 21.8516C222.25 21.7109 222.508 21.4531 222.719 21.0781C222.953 20.7031 223.117 20.293 223.211 19.8477C223.305 19.4023 223.34 18.9805 223.316 18.582C223.293 18.1602 223.188 17.8203 223 17.5625C222.859 17.3984 222.531 17.1875 222.016 16.9297C221.523 16.6719 220.926 16.3906 220.223 16.0859C219.543 15.7812 218.816 15.4648 218.043 15.1367C217.293 14.8086 216.578 14.4805 215.898 14.1523C215.242 13.8008 214.691 13.4727 214.246 13.168C213.824 12.8398 213.59 12.5469 213.543 12.2891C213.496 11.9141 213.461 11.5039 213.438 11.0586C213.414 10.5898 213.438 10.1328 213.508 9.6875C213.602 9.21875 213.766 8.77344 214 8.35156C214.258 7.92969 214.633 7.57812 215.125 7.29688C215.453 7.10938 215.887 6.96875 216.426 6.875C216.965 6.78125 217.562 6.73438 218.219 6.73438C218.875 6.71094 219.555 6.73438 220.258 6.80469C220.961 6.85156 221.629 6.92188 222.262 7.01562C222.918 7.08594 223.504 7.17969 224.02 7.29688C224.559 7.41406 224.969 7.51953 225.25 7.61328C225.578 7.73047 225.93 7.74219 226.305 7.64844C226.633 7.57812 226.984 7.42578 227.359 7.19141C227.734 6.95703 228.121 6.53516 228.52 5.92578Z" fill="#0012B4"/>
</svg>
